<?xml version="1.0" encoding="utf-8"?>
<!-- Generator: Adobe Illustrator 24.3.0, SVG Export Plug-In . SVG Version: 6.00 Build 0)  -->
<svg version="1.1" id="TEXTS" xmlns="http://www.w3.org/2000/svg" xmlns:xlink="http://www.w3.org/1999/xlink" x="0px" y="0px"
	 viewBox="0 0 376.2 443.94" enable-background="new 0 0 376.2 443.94" xml:space="preserve">
<g>
	<g>
		<g>
			<g>
				<path fill-rule="evenodd" clip-rule="evenodd" d="M100.1,81.68l78.12-46.96c24.11-14.49,55.7-6.62,70.2,17.49l86.38,143.7
					c14.49,24.11,6.62,55.7-17.49,70.2l-78.12,46.96c-24.11,14.5-55.7,6.62-70.2-17.49l-86.37-143.7
					C68.12,127.76,75.99,96.17,100.1,81.68z"/>
				<g>
					<path fill-rule="evenodd" clip-rule="evenodd" fill="#FFFFFF" d="M233.89,33.73l77.12,44.18
						c23.8,13.64,29.47,44.09,15.84,69.54l-81.14,151.5c-7.56,14.11-25.19,22.93-40.8,24.86c-12.55,1.55-24.08-1.39-38.7-9.76
						l-77.12-44.18c-23.8-13.64-30.93-44.93-15.84-69.54l89.93-146.65C178.26,29.08,210.09,20.1,233.89,33.73z"/>
					<path fill-rule="evenodd" clip-rule="evenodd" fill="#FF4D30" d="M234.27,33.73l79.73,44.18
						c24.61,13.64,33.59,44.93,19.95,69.54L252.68,294.1c-13.64,24.61-44.93,33.59-69.54,19.95l-79.73-44.18
						c-24.61-13.64-33.59-44.93-19.95-69.54l81.26-146.65C178.36,29.08,209.66,20.1,234.27,33.73z"/>
					<polygon fill-rule="evenodd" clip-rule="evenodd" fill="#FFFFFF" points="291.8,235.33 250.21,298.16 282.68,239.76 					"/>
				</g>
				<g>
					<path fill-rule="evenodd" clip-rule="evenodd" fill="#FFFFFF" d="M250.57,94.42c5.05,0.84,9.86-2.59,10.7-7.64
						c0.84-5.05-2.59-9.86-7.63-10.7c-5.05-0.84-9.86,2.59-10.7,7.63C242.09,88.77,245.52,93.58,250.57,94.42z"/>
					<path fill-rule="evenodd" clip-rule="evenodd" d="M241.89,38.3c1.02-2.15,2.44-5.08,3.48-6.81c1.21-2.02,2.54-4.03,4-6.02
						c8.16-11.11,18.53-19.02,28.69-22.84c10.57-3.97,21-3.57,28.77,2.14c7.78,5.71,11.28,15.54,10.65,26.82
						c-0.6,10.84-5.05,23.1-13.21,34.21c-7.48,10.18-16.82,17.68-26.16,21.8c-9.76,4.31-19.59,4.96-27.48,1.2
						c-1.43-0.68-2.04-2.38-1.36-3.81c0.68-1.43,2.38-2.03,3.81-1.36c6.34,3.02,14.48,2.39,22.73-1.25
						c8.46-3.73,16.97-10.6,23.85-19.96c7.49-10.19,11.57-21.35,12.11-31.15c0.52-9.37-2.21-17.41-8.32-21.9
						c-6.12-4.49-14.61-4.7-23.39-1.4c-9.19,3.45-18.61,10.68-26.1,20.87c-1.34,1.82-2.57,3.68-3.7,5.57
						c-0.43,0.72-0.85,1.45-1.25,2.17c-0.48,0.87-1.6,3.33-2.4,5.09l-0.57-0.45C244.71,40.15,243.32,39.18,241.89,38.3z"/>
					<path fill-rule="evenodd" clip-rule="evenodd" fill="#FFFFFF" d="M249.43,89.38c16.05,3.82,29.66,0.18,42.41-10.3
						c10.22-8.4,15.2-16.75,20.78-27.82c-5.78,16.22-14.93,28.13-28.55,35.99c-11.91,6.87-22.36,8.09-35.69,5.19L249.43,89.38z"/>
				</g>
			</g>
			<path fill-rule="evenodd" clip-rule="evenodd" d="M89.99,229.69c-43.03,6.31-79.28,15.66-23.9,23.78
				c55.38,8.12,124.81,24.92,152.98,13.08l112.11-47.09c9.42-3.95,7.71-8.8-1.9-10.77c-14.4-2.95-31.01-5.97-33.72-6.11
				C295.56,202.57,99.55,222.09,89.99,229.69z"/>
			<g>
				<path fill-rule="evenodd" clip-rule="evenodd" d="M214.2,191.15c-8-0.48-11.87-0.71-19.72-1.19
					c-9.79-0.59-18.6,13.82-19.67,32.18s5.99,33.73,15.78,34.32c8,0.48,11.87,0.71,19.72,1.19c9.79,0.59,18.6-13.82,19.67-32.18
					S223.99,191.74,214.2,191.15z"/>
				<path fill-rule="evenodd" clip-rule="evenodd" d="M311.15,176.07c-4.38-0.26-6.51-0.39-10.81-0.65
					c-5.37-0.32-10.2,9.78-10.79,22.56c-0.59,12.78,3.28,23.41,8.65,23.73c4.38,0.26,6.51,0.39,10.81,0.65
					c5.37,0.32,10.2-9.78,10.79-22.56C320.4,187.01,316.52,176.39,311.15,176.07z"/>
				<path fill-rule="evenodd" clip-rule="evenodd" d="M94.43,198.54c-4.38-0.96-6.51-1.42-10.81-2.37
					c-5.37-1.18-10.2,8.16-10.79,20.84c-0.59,12.69,3.29,23.93,8.65,25.1c4.38,0.96,6.51,1.43,10.81,2.37
					c5.37,1.18,10.2-8.16,10.79-20.84C103.67,210.95,99.79,199.71,94.43,198.54z"/>
				<path fill-rule="evenodd" clip-rule="evenodd" fill="#FFFFFF" d="M35.82,212.65c-0.53-6.05-0.74-13.54,0.75-19.02
					c1.08-3.95,3.22-8.06,5.94-11.3c0.32-3.52,1.37-7.6,2.47-10.65c1.45-4.02,3.63-7.97,7.1-10.59c1.87-1.42,4.19-2.35,6.36-3.22
					c2.77-1.11,5.59-2.11,8.41-3.08c7.51-2.6,15.09-5.01,22.68-7.38c9.86-3.08,19.75-6.08,29.65-9.02
					c26.63-21.84,45.33-29.92,80.5-30.3c27.16-0.29,64.69,1.89,88.14,16.62c6.89,4.32,14.2,9.93,19.58,16.04
					c1.55,1.76,3.65,3.36,5.54,4.73c2.22,1.61,4.53,3.1,6.89,4.5c1.33,0.79,2.68,1.61,4.07,2.27c5.26,2.51,6.47,7.97,7.26,13.17
					c0.61,3.99,0.98,8.01,1.32,12.04c0.44,5.19,0.14,10.47,0.75,15.72c1.3,11.26-4.23,15.22-13.22,15.42l-1.99-32.08v-7.32
					L59.75,188.15c-9.27-2.1-10.35,38.33-11.97,39.95C34.86,227.34,32.42,217.42,35.82,212.65z"/>
				<path fill-rule="evenodd" clip-rule="evenodd" d="M121.65,143.03c25.73-21.24,43.22-29.41,78.09-29.79
					c25.44-0.27,62.78,1.66,85.35,15.83c6.26,3.93,13.52,9.48,18.46,15.08c1.79,2.03,4.2,3.92,6.39,5.5
					c2.34,1.7,4.79,3.28,7.28,4.76c1.43,0.85,2.99,1.78,4.49,2.5c3.3,1.57,3.9,6.16,4.38,9.3c0.59,3.87,0.95,7.81,1.28,11.69
					c0.3,3.56,0.55,7.12,0.79,10.68c0.13,1.95,0.21,4.02,0.43,5.96c0.34,2.96-0.36,6.48-2.05,8.86l-0.32,0.45l-12.11,9.94v-10
					c0-3.32,0-6.64,0-9.96c0-2.8-0.17-5.81-0.76-8.58c-0.15-0.7-0.63-2.58-1.17-3.5c-0.21,0.1-0.42,0.22-0.54,0.3
					c-2.21,1.4-4.08,9.42-4.58,11.94c-1.05,5.25-1.77,11.04-2.05,16.46l-0.15,2.87l-80.04,27.38l0.87-7.49
					c1.01-8.7,1.63-25.38-1.69-33.74c-0.97-2.43-2.68-5.04-5.28-5.91c-5.83-1.96-11.38,5.54-13.65,9.6c-1.7,3.04-2.91,6.41-3.8,9.82
					c-1.77,6.73-2.4,13.85-2.73,20.87c-0.13,2.67-0.19,5.35-0.37,8.01c-0.15,2.21-0.33,4.86-1.9,6.49
					c-3.56,3.7-16.76,3.39-21.57,3.29c-7.99-0.17-16.06-0.85-24.05-1.73c-12.06-1.33-24.12-3.16-36.12-5.22
					c-10.78-1.86-65.83-11.23-74.2-20.1c-3.32-3.52-1.84-7.54,0.83-10.3c-0.63-6.05-0.98-14.27,0.39-19.29
					c0.99-3.64,3.21-7.73,6.02-10.56c0-0.02,0-0.04,0-0.06c0-3.2,1.21-8.02,2.27-10.93c1.1-3.05,2.76-6.27,5.37-8.24
					c1.37-1.04,3.54-1.89,5.16-2.54c2.69-1.07,5.44-2.05,8.19-3c7.45-2.58,15-4.97,22.53-7.33
					C101.24,149.15,111.43,146.06,121.65,143.03z"/>
				<path fill-rule="evenodd" clip-rule="evenodd" fill="#FF4D30" d="M123.99,147.13c-14.54,4.3-61.55,18.41-65.93,21.73
					c-4.38,3.32-5.98,13.78-5.98,15.77c0,1.99,0,1.99,0,1.99s-4.44,3.41-6.18,9.79c-1.74,6.38,0,19.92,0,19.92s-4.48,3.02-2.39,5.23
					c2.09,2.22,14.74,8.86,71.51,18.65c56.77,9.79,75.89,6.96,77.89,4.89c1.99-2.07-1-27.95,8.17-44.33
					c9.16-16.38,22.31-14.79,27.09-2.75c4.78,12.04,1.99,35.97,1.99,35.97l70.32-24.05c0,0-1.47-12.14,0.63-22.24
					c0.98-4.71,3.67-10.16,5.95-11.6c4.36-2.76,10.64-0.01,12.37,4.18c3.29,7.98,2.45,13.43,2.5,21.23l0.87-0.88
					c0,0,1.69-2.39,1.29-5.85c-0.4-3.46-1.74-32.67-4.13-33.81c-2.39-1.14-14.34-7.84-19.72-13.94
					c-3.68-4.17-13.95-13.48-27.53-19.66c-17.12-7.79-54.89-9.8-72.64-9.61C166.45,118.13,149.91,125.64,123.99,147.13z"/>
				<path fill-rule="evenodd" clip-rule="evenodd" fill="#B73B15" d="M65.91,180.08c-0.49,0.53-1.06,3.69-1.09,7.54
					c-0.01,1.79,1.23,3.07,2.84,3.5c14.74,3.95,42.14,7.47,59.3,8.99c3.05,0.27,6.01,0.87,7.44-2.19c1.48-3.17,1.55-5.62-0.23-7.36
					c-1.28-1.25-22.64-3.83-40.3-6.3C78.27,182.08,66.07,179.91,65.91,180.08L65.91,180.08z M64.35,192.14
					c-0.04-0.33,13.17,5.38,32.01,7.19c7.65,0.73,22.85,3.42,32.8,2.74c3.4-0.23,3.38-0.47,0.95,2.51
					c-5.87,7.2-12.14,7.57-25.96,6.15c-14.92-1.53-24.86-3.8-33.27-6.87C67.05,202.45,64.96,196.98,64.35,192.14z"/>
				<path fill-rule="evenodd" clip-rule="evenodd" fill="#B73B15" d="M45.34,199.73c-0.68,6.85,0.57,16.61,0.57,16.61
					s-4.48,3.02-2.39,5.23c2.09,2.22,14.74,8.86,71.51,18.65c56.77,9.79,75.89,6.96,77.89,4.89c1.99-2.07-1-27.95,8.17-44.33
					c9.16-16.38,22.31-14.79,27.09-2.75c4.78,12.04,1.99,35.97,1.99,35.97l70.32-24.05c0,0-0.75-27.46,6.57-31.75
					c7.2-4.22,10.59,1.39,12.37,7.95c2.07,7.64,0.94,17.24,1.13,17.03l2.24-2.54c0,0,1.69-2.39,1.29-5.85
					c-0.32-2.75-1.23-21.84-2.8-30.08c-0.32,1.44-0.72,2.94-1.23,4.24c-1.59,4.09-24.3,5.71-24.3,5.71l-66.93,15.49
					c0,0-4.58-7.45-13.35-6.58c-8.76,0.87-14.94,14.04-20.12,23.89c-4.08,7.76-15.2,12.25-22.28,13.26
					c7.31,5.31,13.6,20.77,9.92,21.71c-3.79,0.97-25.9-0.96-27.69-3.06c-1.79-2.1-4.18-16.39-5.38-16.86
					c-1.2-0.47-18.72-2.52-18.72-2.52c4.11-0.91,8.67-1.67,13.27-2.18c-8.97,0.15-17.07,1.01-18.24,1.62
					c-2.39,1.25-12.35-0.74-12.35-0.74s-50.4-7.22-52.99-9.16C58.41,207.64,48.73,201.09,45.34,199.73z"/>
				<path fill-rule="evenodd" clip-rule="evenodd" d="M45.62,197.72c-1.23,6.75-0.5,17.72-0.5,17.72c0.26,1.11,2.68,2.23,4.27,2.59
					c1.68,0.38,3.35,0.85,3.85-0.41c0.88-2.22,1.82-6.3,2.09-9.1C55.71,204.57,55.43,203.55,45.62,197.72z"/>
				<path fill-rule="evenodd" clip-rule="evenodd" d="M58.06,168.86c-4.38,3.32-5.98,13.78-5.98,15.77c0,1.99,0,1.99,0,1.99
					s-0.09,0.07-0.25,0.2c0.64,0.68,5.18,3.33,7.65,4.57c0.63,0.31,1.39-0.23,1.45-0.72c0.37-3.43,0.06-9.88,0.06-10.88
					C61,179.06,59.31,167.91,58.06,168.86z"/>
				<path fill-rule="evenodd" clip-rule="evenodd" d="M167.3,121.76c-14.97,4.23-27.34,12.14-43.24,25.32l106.46,9.5
					c0,0,12.44-30.08,11.55-31.38C241.19,123.91,190.05,122.43,167.3,121.76z"/>
				<path fill-rule="evenodd" clip-rule="evenodd" d="M134.01,138.32c-4.68-2.97-11.45-2.28-13.75,5.65
					C117.97,151.9,127.63,145.51,134.01,138.32z"/>
				<path fill-rule="evenodd" clip-rule="evenodd" d="M153.83,187.02c-8.76,5.85-19.52,17.95-10.16,17.32
					c9.36-0.63,36.25-1.6,41.23-6.68c4.98-5.08,11.95-16.01,7.37-16.89C187.69,179.9,163.39,184.01,153.83,187.02z"/>
				<path fill-rule="evenodd" clip-rule="evenodd" d="M64.79,178.26c-0.51,0.53-1.1,3.69-1.13,7.54c-0.01,1.79,1.28,3.07,2.96,3.5
					c15.35,3.95,43.9,7.47,61.77,8.99c3.17,0.27,6.26,0.87,7.75-2.19c1.55-3.17,1.61-5.62-0.24-7.36
					c-1.33-1.25-23.58-3.83-41.97-6.3C77.66,180.26,64.95,178.09,64.79,178.26L64.79,178.26z M63.94,190.78
					c-0.04-0.33,12.93,4.93,32.56,6.73c7.97,0.73,23.8,3.42,34.17,2.73c3.54-0.23,3.52-0.47,0.99,2.51
					c-6.11,7.2-12.64,7.57-27.04,6.15c-15.54-1.53-25.5-4.1-34.26-7.17C66.37,200.33,64.58,195.62,63.94,190.78z"/>
				<path fill-rule="evenodd" clip-rule="evenodd" d="M127.23,219.98c14.14-3.13,33.66-4.55,41.23,0.29
					c7.57,4.84,14.34,21.18,10.56,22.15c-3.78,0.97-25.9-0.96-27.69-3.06c-1.79-2.1-4.18-16.39-5.38-16.86
					C144.76,222.03,127.23,219.98,127.23,219.98z"/>
				<path fill-rule="evenodd" clip-rule="evenodd" d="M164.48,226.01c-5.98-0.27-8.41-0.68-13.58-0.84
					c-5.84-0.19-13.95-0.07-11.52,0.93c1.51,0.62,7.19,1.5,10.8,1.88C157.56,228.76,164.22,228.4,164.48,226.01z"/>
				<path fill-rule="evenodd" clip-rule="evenodd" d="M168.27,233.21c-12.75-0.57-29.68-1.79-25.1,0.08
					C147.75,235.16,167.87,236.77,168.27,233.21z"/>
				<path fill-rule="evenodd" clip-rule="evenodd" d="M57.12,220.74c4.78-5.69,5.18-9.25,11.95-8.44c6.77,0.81,50.6,8.42,50.6,8.42
					s5.38,1.52,10.16,7.78c4.78,6.27,4.78,6.27,4.78,6.27S106.52,235.07,57.12,220.74z"/>
				<path fill-rule="evenodd" clip-rule="evenodd" d="M237.49,217.06c51.99-17.79,51.99-17.79,51.99-17.79l-6.57,9.76l-45.82,15.77
					L237.49,217.06z"/>
				<path fill-rule="evenodd" clip-rule="evenodd" d="M321.48,165.08c-16.83-5.34-76.34,5.63-116.22,14.23l-1.82,0.23
					c18.54-7.79,93.97-19.3,111.7-21.26c2.25,1.34,4.05,2.3,4.83,2.67c0.36,0.17,0.69,0.97,1,2.2L321.48,165.08z"/>
				<path fill-rule="evenodd" clip-rule="evenodd" d="M247.71,133.05c-3.66,9.6-7.65,25.2-6.64,25.26c1.2,0.07,52.39-7.8,53.19-8.95
					c1.71-2.46-9.94-10.89-16.39-14.56c-10.91-6.21-20.65-7.73-25.46-8.54C249.89,125.84,249.15,129.28,247.71,133.05z"/>
				<path fill-rule="evenodd" clip-rule="evenodd" d="M251.63,145.8c-2.59,0.24-5.38,2.86-5.38,10.03c0,1.27,0.02,2.32,0.05,3.19
					c0.33,9.27,8.48,7.96,7.89-0.72c0,0,12.77-0.42,14.47-2.01c0.85-0.8,1.65-1.85-1.22-4.94
					C264.64,148.32,258.44,145.02,251.63,145.8z"/>
				<polygon fill-rule="evenodd" clip-rule="evenodd" points="237.45,213.9 299.04,195.06 286.01,203.59 237.04,224.34 				"/>
				<path fill-rule="evenodd" clip-rule="evenodd" d="M69.09,164.34l-1.3,1.1c-3.46,4.05-11.73,11.29-2.61,12.6
					c13.06,1.87,36.8,5.35,54.92,7.78c10.22,1.37,16.89,3.02,23.19,2.34c5.43-0.58,21.57-5.29,38.69-10.74
					c19.73-6.28,40.7-13.49,48.1-16.45c5.78-2.31,1.45-3.93-4.89-5.05l4.3-0.99c0.03,0.02,9.67,2.71,4.76,6.61
					c-1.69,1.35-27.55,10.43-51.47,18.03c-17.24,5.49-33.53,10.24-39.12,10.83c-7.21,0.77-12.75-0.27-24.56-1.97
					c-17.25-2.49-41.8-6.39-54.11-8.16c-11.1-1.59-5.04-9.07-0.81-14.16C65.63,165.57,67.28,164.98,69.09,164.34z"/>
				<path fill-rule="evenodd" clip-rule="evenodd" fill="#FFFFFF" d="M215.2,198.81c-3.27-0.2-6.44,2.4-8.93,6.75
					c-2.61,4.57-4.42,11.01-4.79,18.24c-0.05,0.89-0.07,1.81-0.07,2.76c0,6.48,1.2,12.3,3.23,16.59c1.91,4.05,4.52,6.66,7.46,6.99
					c0.06,0.01,0.16,0.01,0.3,0.02c3.27,0.2,6.44-2.4,8.93-6.75c2.61-4.57,4.42-11.01,4.79-18.24c0.05-0.89,0.07-1.82,0.07-2.76
					c0-6.48-1.21-12.3-3.23-16.59c-1.91-4.05-4.52-6.66-7.46-6.99C215.44,198.83,215.34,198.82,215.2,198.81L215.2,198.81z
					 M204.3,204.36c2.89-5.05,6.75-8.06,10.91-7.81c0.1,0.01,0.24,0.02,0.41,0.04c3.83,0.43,7.1,3.56,9.38,8.38
					c2.17,4.59,3.46,10.76,3.46,17.58c0,0.91-0.03,1.87-0.08,2.88c-0.4,7.58-2.3,14.36-5.07,19.2c-2.89,5.05-6.75,8.06-10.91,7.81
					c-0.1-0.01-0.24-0.02-0.41-0.04c-3.83-0.43-7.1-3.56-9.38-8.38c-2.17-4.59-3.46-10.77-3.46-17.58c0-0.91,0.03-1.87,0.08-2.88
					C199.62,215.98,201.53,209.2,204.3,204.36z"/>
				<path fill-rule="evenodd" clip-rule="evenodd" fill="#FFFFFF" d="M214.77,217.57c-0.84-0.05-1.69,0.6-2.4,1.69
					c-0.82,1.27-1.38,3.07-1.5,5.11c-0.01,0.24-0.02,0.5-0.02,0.79c0,1.81,0.37,3.42,0.98,4.6c0.52,0.98,1.18,1.62,1.9,1.7l0.09,0
					c0.84,0.05,1.69-0.6,2.4-1.69c0.82-1.27,1.38-3.07,1.5-5.11c0.01-0.24,0.02-0.5,0.02-0.79c0-1.81-0.37-3.42-0.99-4.6
					c-0.51-0.98-1.18-1.62-1.9-1.7L214.77,217.57L214.77,217.57z M210.46,217.97c1.12-1.73,2.64-2.75,4.31-2.65
					c0.04,0,0.11,0.01,0.21,0.02c1.56,0.19,2.87,1.3,3.76,3c0.79,1.5,1.26,3.5,1.26,5.68c0,0.27-0.01,0.57-0.03,0.91
					c-0.14,2.42-0.83,4.59-1.83,6.15c-1.12,1.73-2.64,2.75-4.31,2.65c-0.04,0-0.11-0.01-0.21-0.02c-1.56-0.18-2.87-1.3-3.76-3
					c-0.79-1.5-1.26-3.5-1.26-5.68c0-0.27,0.01-0.57,0.03-0.91C208.77,221.7,209.46,219.52,210.46,217.97z"/>
				<path fill-rule="evenodd" clip-rule="evenodd" fill="#FFFFFF" d="M212.37,218.98c-1.42-0.09-2.69,2.19-2.84,5.08
					c-0.15,2.89,0.88,5.31,2.3,5.39c1.42,0.08,2.69-2.19,2.83-5.08C214.82,221.48,213.79,219.06,212.37,218.98z"/>
				<path fill-rule="evenodd" clip-rule="evenodd" fill="#FFFFFF" d="M212.37,220.11c-0.26-0.01-0.59,0.33-0.9,0.89
					c-0.44,0.79-0.74,1.91-0.81,3.19c-0.01,0.13-0.01,0.29-0.01,0.49c0,1.13,0.2,2.13,0.53,2.85c0.22,0.48,0.45,0.77,0.65,0.8h0.01
					c-0.01,0-0.03,0,0,0c0.26,0.01,0.59-0.33,0.9-0.89c0.44-0.79,0.74-1.91,0.81-3.19c0.01-0.13,0.01-0.29,0.01-0.49
					c0-1.13-0.2-2.13-0.53-2.85C212.81,220.43,212.58,220.13,212.37,220.11L212.37,220.11C212.38,220.11,212.4,220.11,212.37,220.11
					L212.37,220.11z M209.49,219.81c0.71-1.27,1.73-2.03,2.89-1.96l0.12,0.01c1.1,0.12,1.99,0.94,2.57,2.2
					c0.47,1.02,0.75,2.36,0.75,3.83c0,0.16-0.01,0.36-0.02,0.61c-0.08,1.62-0.49,3.08-1.07,4.13c-0.71,1.27-1.73,2.03-2.89,1.96
					l-0.12-0.01c-1.1-0.12-1.99-0.94-2.57-2.2c-0.47-1.02-0.75-2.36-0.75-3.83c0-0.16,0.01-0.36,0.02-0.61
					C208.5,222.32,208.9,220.86,209.49,219.81L209.49,219.81z M211.84,228.33C211.84,228.33,211.84,228.33,211.84,228.33
					L211.84,228.33z M212.37,220.11"/>
				<path fill-rule="evenodd" clip-rule="evenodd" fill="#FFFFFF" d="M311.7,181.39c-1.79-0.11-3.53,1.73-4.9,4.78
					c-1.43,3.2-2.42,7.7-2.63,12.73c-0.03,0.62-0.04,1.26-0.04,1.92c0,4.51,0.66,8.55,1.77,11.51c1.05,2.8,2.48,4.59,4.09,4.8
					c0.03,0,0.09,0.01,0.16,0.01c1.79,0.11,3.53-1.72,4.9-4.78c1.43-3.2,2.42-7.7,2.63-12.73c0.03-0.62,0.04-1.26,0.04-1.92
					c0-4.5-0.66-8.55-1.77-11.51c-1.05-2.8-2.48-4.59-4.09-4.8C311.83,181.4,311.78,181.39,311.7,181.39L311.7,181.39z
					 M305.72,185.34c1.58-3.54,3.7-5.66,5.98-5.53c0.06,0,0.13,0.01,0.23,0.02c2.1,0.27,3.89,2.41,5.14,5.74
					c1.19,3.17,1.9,7.46,1.9,12.2c0,0.63-0.01,1.3-0.04,2c-0.22,5.27-1.26,10.01-2.78,13.4c-1.58,3.54-3.7,5.66-5.98,5.53
					c-0.06,0-0.13-0.01-0.23-0.02c-2.1-0.27-3.89-2.41-5.14-5.74c-1.19-3.17-1.9-7.46-1.9-12.2c0-0.63,0.01-1.3,0.04-2
					C303.16,193.47,304.21,188.73,305.72,185.34z"/>
				<path fill-rule="evenodd" clip-rule="evenodd" fill="#FFFFFF" d="M311.47,194.44c-0.46-0.03-0.93,0.43-1.32,1.2
					c-0.45,0.89-0.76,2.15-0.82,3.57c-0.01,0.16-0.01,0.35-0.01,0.55c0,1.26,0.2,2.38,0.54,3.19c0.28,0.68,0.65,1.12,1.04,1.17
					l0.05,0c0.46,0.03,0.93-0.43,1.31-1.2c0.45-0.89,0.76-2.15,0.82-3.57c0.01-0.16,0.01-0.35,0.01-0.55c0-1.26-0.2-2.38-0.54-3.19
					c-0.28-0.68-0.65-1.12-1.04-1.17L311.47,194.44L311.47,194.44z M309.1,194.75c0.61-1.21,1.45-1.94,2.36-1.88
					c0.02,0,0.06,0.01,0.12,0.01c0.85,0.11,1.57,0.88,2.06,2.05c0.43,1.04,0.69,2.42,0.69,3.94c0,0.19,0,0.4-0.01,0.63
					c-0.08,1.69-0.46,3.2-1.01,4.3c-0.61,1.21-1.45,1.94-2.36,1.88c-0.02,0-0.06-0.01-0.12-0.01c-0.85-0.12-1.57-0.88-2.06-2.05
					c-0.43-1.04-0.69-2.42-0.69-3.94c0-0.19,0.01-0.4,0.02-0.63C308.18,197.36,308.55,195.85,309.1,194.75z"/>
				<path fill-rule="evenodd" clip-rule="evenodd" fill="#FFFFFF" d="M310.15,195.44c-0.78-0.05-1.47,1.55-1.55,3.56
					c-0.08,2.01,0.48,3.68,1.26,3.73c0.78,0.05,1.47-1.55,1.55-3.56C311.5,197.16,310.93,195.49,310.15,195.44z"/>
				<path fill-rule="evenodd" clip-rule="evenodd" fill="#FFFFFF" d="M310.15,196.23c-0.14-0.01-0.32,0.23-0.49,0.63
					c-0.24,0.55-0.41,1.34-0.44,2.23c0,0.09-0.01,0.2-0.01,0.34c0,0.79,0.11,1.48,0.29,1.98c0.12,0.33,0.25,0.53,0.36,0.55h0
					c0,0-0.01,0,0,0c0.14,0.01,0.32-0.23,0.49-0.63c0.24-0.55,0.41-1.34,0.44-2.23c0-0.09,0.01-0.2,0.01-0.34
					c0-0.79-0.11-1.48-0.29-1.98C310.39,196.44,310.27,196.24,310.15,196.23L310.15,196.23
					C310.16,196.22,310.17,196.23,310.15,196.23L310.15,196.23z M308.57,196.04c0.39-0.89,0.95-1.43,1.58-1.39l0.07,0.01
					c0.6,0.07,1.09,0.64,1.41,1.51c0.26,0.7,0.41,1.64,0.41,2.66c0,0.11,0,0.25-0.01,0.42c-0.05,1.12-0.27,2.14-0.59,2.88
					c-0.39,0.89-0.95,1.43-1.58,1.39l-0.07-0.01c-0.6-0.07-1.09-0.64-1.41-1.51c-0.26-0.7-0.41-1.64-0.41-2.66
					c0-0.11,0-0.25,0.01-0.42C308.03,197.8,308.25,196.78,308.57,196.04L308.57,196.04z M309.86,201.95
					C309.86,201.95,309.86,201.95,309.86,201.95L309.86,201.95z M310.15,196.22"/>
				<path fill-rule="evenodd" clip-rule="evenodd" d="M44.96,197c8.05,4.34,12,7.64,18,13.37c-7.82-1.2-10.86-2.58-18.24-4.76
					L44.96,197z"/>
				<path fill-rule="evenodd" clip-rule="evenodd" d="M46.25,208.16c2.76,0.94,3.89,1.11,6.27,1.97c2.69,0.97,6.38,2.59,5.2,2.83
					c-0.74,0.15-3.4-0.3-5.08-0.71C49.2,211.4,46.19,209.89,46.25,208.16z"/>
				<path fill-rule="evenodd" clip-rule="evenodd" d="M45.37,211.91c5.87,2.01,13.7,4.34,11.47,4.79
					C54.6,217.15,45.29,214.49,45.37,211.91z"/>
				<path fill-rule="evenodd" clip-rule="evenodd" fill="#FFFFFF" d="M190.4,186.06c-10.29,0.89-29.54,0.36-37.62,6.52
					c-3.32,2.53-7.17,6.64-10.18,9.66c2.82-4.2,5.28-7.48,9.21-10.82c8.26-7.01,27.44-7.04,38.21-8.27L190.4,186.06z"/>
				<path fill-rule="evenodd" clip-rule="evenodd" fill="#FFFFFF" d="M189.21,183.21c5.59-0.45-4.4,11.6-6.27,13.15
					c-1.46,1.21-5.73,1.83-7.77,2.19c-3.39,0.6-3.39,0.6-3.39,0.6l0.6-3.09c0.04-0.19,0.55-0.28,1.25-0.4
					c5.97-1.01,6.45-7.69,2.82-8.55c0,0-3.34-0.42-3.42-0.42l0.35-1.38L189.21,183.21z"/>
				<path fill-rule="evenodd" clip-rule="evenodd" fill="#FFFFFF" d="M55.3,172.39c1.35,1.46,2.06,3.19,2.49,5.31
					c0.53,2.66,1,5.69,1.64,10.18c0-3.44,0.06-4.18-0.16-7.54c-0.31-4.68-1.06-7.7-2.76-9.9C56.07,171.03,55.67,171.69,55.3,172.39z
					"/>
				<path fill-rule="evenodd" clip-rule="evenodd" fill="#FFFFFF" d="M52.08,184.73l0.04,0.04c0.89,0.78,3.45,2.58,3.52,2.47
					c0.07-0.11-0.21-0.45-0.01-2.58c0.02-0.19-0.27-0.45-0.66-0.79c-3.17-2.78-0.34-11.68,2.74-7.01c0.48,0.72,1.17,1.57,1.19,1.58
					l-0.46-3.76l-3.05-2.44c-2.38,4.45-3.3,10.88-3.3,12.39V184.73z"/>
				<path fill-rule="evenodd" clip-rule="evenodd" fill="#FFFFFF" d="M249.1,146.9c3.56-0.09,6.95,0.9,10.84,2.62
					c3.34,1.48,4.81,3.34,5.46,5.15c0.32,0.89,0.44,1.76,0.49,2.57c1.34-0.26,2.37-0.57,2.78-0.95c0.54-0.5,1.05-1.1,0.65-2.25
					c-0.24-0.68-0.8-1.55-1.87-2.7c-2.81-3.03-9.01-6.33-15.81-5.56C250.77,145.88,249.89,146.22,249.1,146.9z"/>
				<path fill-rule="evenodd" clip-rule="evenodd" fill="#FFFFFF" d="M158.15,144.74c-10.62-2.59-4.75-10.05,17.52-21.06
					c-0.99-0.03-13.59-0.27-14.7,0.14c-10.27,3.81-19.66,9.62-30.41,18.01c-1.66,1.54-3.37,2.91-4.91,3.93
					c-0.53,0.43-1.06,0.87-1.6,1.32l82.9,7.4C192.06,152.32,168.77,147.33,158.15,144.74z"/>
				<path fill-rule="evenodd" clip-rule="evenodd" d="M119.18,144.91c33.77,1.91,72.24,5.15,105.66,10.31c2.84,0.44,5.3,0.75,8,1.63
					l-1.48-0.11c-37.79-3.39-74.28-7.05-112.33-8.67c-0.87-0.04-1.55-0.78-1.51-1.65C117.57,145.54,118.31,144.87,119.18,144.91z"/>
				<path fill-rule="evenodd" clip-rule="evenodd" fill="#FFFFFF" d="M223.39,160.58c-6.77,2.59-74,24.8-83.96,24.8
					c-5.39,0-53.38-6.04-73.88-9.34c-3.08-0.5-4.01-2.15-3.92-3.01c-1.2,2.37-0.84,4.37,3.55,5.01c7.15,1.03,17.5,2.53,28.38,4.08
					c2.62,0.37,5.27,0.75,7.91,1.12c6.43,0.91,12.82,1.79,18.63,2.57c10.22,1.37,16.89,3.02,23.19,2.34
					c5.43-0.58,21.57-5.29,38.69-10.74c19.73-6.28,40.7-13.49,48.1-16.45c4.54-1.82,2.84-3.2-1.16-4.26
					C229.18,157.67,227.54,158.99,223.39,160.58z"/>
				<path fill-rule="evenodd" clip-rule="evenodd" fill="#FFFFFF" d="M38.83,216.81c-2.73,5.56,1.41,9.16,7.19,11.55
					c11.51,4.76,29.22,8.03,47.47,11.36c21.66,3.95,44.18,7.72,59.68,10.64l-3.55-0.26c-29.12-3.06-69.01-8.86-97.68-16.26
					c-11.21-2.89-21.57-8.09-16.45-18.99L38.83,216.81z"/>
				<polygon fill-rule="evenodd" clip-rule="evenodd" fill="#FFFFFF" points="230.46,238.42 297.24,216.89 229.03,242.99 				"/>
				<path fill-rule="evenodd" clip-rule="evenodd" fill="#FFFFFF" d="M227.16,187.76c14.98-4.31,67.87-15.58,80.7-15.02
					c-28.63,6.62-54.04,13.11-77.34,20.87L227.16,187.76z"/>
			</g>
		</g>
	</g>
	<polygon fill-rule="evenodd" clip-rule="evenodd" fill="#FFFFFF" points="98.7,338.48 84.06,292.63 300.91,292.63 283.02,341.66 	
		"/>
	<g>
		<path fill-rule="evenodd" clip-rule="evenodd" d="M376.2,331.38l-23.62,81.55c-109.66,0-219.31,0-328.96,0L0,331.38
			C125.15,332.56,251.06,332.56,376.2,331.38z"/>
		<g>
			<path fill-rule="evenodd" clip-rule="evenodd" d="M259.85,430.35l19.67,2.31l0,0l-19.61,2.81c-1.41,0.02-2.57-1.11-2.59-2.53
				C257.3,431.52,258.43,430.36,259.85,430.35z"/>
			<path fill-rule="evenodd" clip-rule="evenodd" d="M113.84,430.35l-19.67,2.31l0,0l19.61,2.81c1.41,0.02,2.57-1.11,2.59-2.53
				C116.38,431.52,115.25,430.36,113.84,430.35z"/>
		</g>
	</g>
	<g>
		<g>
			<path d="M127.09,443.94V421.5h4.76v22.45H127.09z"/>
			<path d="M157.41,443.94h-6.05l-9.76-16.98h-0.14c0.04,0.71,0.08,1.42,0.11,2.13s0.06,1.43,0.09,2.14
				c0.03,0.71,0.06,1.43,0.09,2.14v10.56h-4.25V421.5h6l9.75,16.81h0.11c-0.02-0.7-0.05-1.39-0.08-2.07s-0.06-1.37-0.08-2.06
				s-0.05-1.37-0.07-2.06V421.5h4.28V443.94z"/>
			<path d="M181.68,432.5c0,2.53-0.48,4.64-1.45,6.33s-2.37,2.97-4.2,3.82c-1.83,0.86-4.04,1.28-6.62,1.28h-6.36V421.5h7.05
				c2.35,0,4.4,0.42,6.13,1.25c1.73,0.83,3.07,2.07,4.02,3.7C181.21,428.08,181.68,430.1,181.68,432.5z M176.74,432.63
				c0-1.66-0.24-3.02-0.73-4.09s-1.2-1.86-2.15-2.37s-2.12-0.77-3.51-0.77h-2.53v14.62h2.04c2.32,0,4.05-0.62,5.18-1.86
				S176.74,435.07,176.74,432.63z"/>
			<path d="M206.71,432.69c0,1.73-0.21,3.3-0.64,4.72s-1.08,2.64-1.96,3.66c-0.88,1.02-1.98,1.81-3.32,2.36
				c-1.34,0.55-2.93,0.82-4.76,0.82s-3.42-0.27-4.76-0.82c-1.34-0.55-2.45-1.33-3.32-2.36c-0.87-1.02-1.53-2.25-1.96-3.67
				s-0.64-3-0.64-4.74c0-2.32,0.38-4.35,1.14-6.07c0.76-1.72,1.94-3.06,3.52-4.01c1.59-0.95,3.6-1.43,6.05-1.43
				c2.44,0,4.44,0.48,6.01,1.43c1.57,0.95,2.74,2.29,3.5,4.02C206.33,428.32,206.71,430.35,206.71,432.69z M190.33,432.69
				c0,1.57,0.2,2.91,0.59,4.04c0.39,1.13,1.01,2,1.85,2.61c0.84,0.61,1.92,0.91,3.25,0.91c1.35,0,2.45-0.3,3.29-0.91
				c0.84-0.61,1.45-1.48,1.83-2.61s0.58-2.48,0.58-4.04c0-2.35-0.44-4.21-1.32-5.56c-0.88-1.35-2.33-2.03-4.34-2.03
				c-1.34,0-2.43,0.3-3.28,0.91c-0.84,0.61-1.46,1.48-1.86,2.61C190.52,429.76,190.33,431.11,190.33,432.69z"/>
			<path d="M217.9,421.5c2.04,0,3.72,0.25,5.04,0.74s2.31,1.23,2.96,2.23c0.65,0.99,0.97,2.25,0.97,3.76c0,1.02-0.2,1.92-0.58,2.69
				s-0.9,1.42-1.54,1.95s-1.32,0.97-2.06,1.3l6.6,9.78h-5.28l-5.36-8.61h-2.53v8.61h-4.76V421.5H217.9z M217.56,425.4h-1.44v6.06
				h1.54c1.58,0,2.7-0.26,3.39-0.79c0.68-0.53,1.02-1.3,1.02-2.33c0-1.06-0.37-1.82-1.1-2.27S219.1,425.4,217.56,425.4z"/>
			<path d="M245.04,443.94h-12.93V421.5h12.93v3.9h-8.17v4.93h7.6v3.9h-7.6v5.79h8.17V443.94z"/>
		</g>
		<g>
			<path fill="#FFFFFF" d="M41.26,397.75c-2.16-2.34-3.24-5.64-3.24-9.9v-29.32c0-4.26,1.08-7.56,3.24-9.9
				c2.16-2.34,5.29-3.51,9.4-3.51c4.11,0,7.24,1.17,9.4,3.51c2.16,2.34,3.24,5.64,3.24,9.9v5.77h-8.11v-6.32
				c0-3.38-1.43-5.07-4.29-5.07c-2.86,0-4.29,1.69-4.29,5.07v30.49c0,3.33,1.43,4.99,4.29,4.99c2.86,0,4.29-1.66,4.29-4.99v-8.34
				h8.11v7.72c0,4.26-1.08,7.56-3.24,9.9c-2.16,2.34-5.29,3.51-9.4,3.51C46.55,401.26,43.42,400.09,41.26,397.75z"/>
			<path fill="#FFFFFF" d="M75.06,345.89h11.62l8.89,54.58h-8.58l-1.56-10.84v0.16h-9.75l-1.56,10.68h-7.95L75.06,345.89z
				 M84.42,382.39l-3.82-26.98h-0.16l-3.74,26.98H84.42z"/>
			<path fill="#FFFFFF" d="M99.7,345.89h12.71c4.42,0,7.64,1.03,9.67,3.08c2.03,2.05,3.04,5.21,3.04,9.47v3.35
				c0,5.67-1.87,9.25-5.61,10.76v0.16c2.08,0.62,3.55,1.9,4.41,3.82c0.86,1.92,1.29,4.5,1.29,7.72v9.59c0,1.56,0.05,2.82,0.16,3.78
				c0.1,0.96,0.36,1.91,0.78,2.85h-8.73c-0.31-0.88-0.52-1.72-0.62-2.5c-0.1-0.78-0.16-2.18-0.16-4.21v-9.98
				c0-2.5-0.4-4.24-1.21-5.22c-0.81-0.99-2.2-1.48-4.17-1.48h-2.96v23.39H99.7V345.89z M111.4,369.29c1.72,0,3-0.44,3.86-1.33
				c0.86-0.88,1.29-2.37,1.29-4.44v-4.21c0-1.97-0.35-3.4-1.05-4.29c-0.7-0.88-1.81-1.33-3.31-1.33h-3.9v15.59H111.4z"/>
			<path fill="#FFFFFF" d="M132.84,397.71c-2.13-2.36-3.2-5.76-3.2-10.18v-3.12h8.11v3.74c0,3.54,1.48,5.3,4.44,5.3
				c1.45,0,2.56-0.43,3.31-1.29c0.75-0.86,1.13-2.25,1.13-4.17c0-2.29-0.52-4.3-1.56-6.04c-1.04-1.74-2.96-3.83-5.77-6.28
				c-3.54-3.12-6-5.94-7.41-8.46c-1.4-2.52-2.1-5.37-2.1-8.54c0-4.31,1.09-7.65,3.27-10.02c2.18-2.37,5.35-3.55,9.51-3.55
				c4.11,0,7.21,1.18,9.32,3.55c2.1,2.37,3.16,5.76,3.16,10.18v2.26h-8.11v-2.81c0-1.87-0.36-3.24-1.09-4.09
				c-0.73-0.86-1.79-1.29-3.2-1.29c-2.86,0-4.29,1.74-4.29,5.22c0,1.98,0.53,3.82,1.6,5.54c1.06,1.72,3,3.8,5.81,6.24
				c3.59,3.12,6.06,5.95,7.41,8.5c1.35,2.55,2.03,5.54,2.03,8.97c0,4.47-1.1,7.9-3.31,10.29c-2.21,2.39-5.42,3.59-9.63,3.59
				C138.12,401.26,134.97,400.07,132.84,397.71z"/>
			<path fill="#FFFFFF" d="M172.61,345.89h12.71c4.42,0,7.64,1.03,9.67,3.08c2.03,2.05,3.04,5.21,3.04,9.47v3.35
				c0,5.67-1.87,9.25-5.61,10.76v0.16c2.08,0.62,3.55,1.9,4.41,3.82c0.86,1.92,1.29,4.5,1.29,7.72v9.59c0,1.56,0.05,2.82,0.16,3.78
				c0.1,0.96,0.36,1.91,0.78,2.85h-8.73c-0.31-0.88-0.52-1.72-0.62-2.5c-0.1-0.78-0.16-2.18-0.16-4.21v-9.98
				c0-2.5-0.4-4.24-1.21-5.22c-0.81-0.99-2.2-1.48-4.17-1.48h-2.96v23.39h-8.58V345.89z M184.31,369.29c1.72,0,3-0.44,3.86-1.33
				c0.86-0.88,1.29-2.37,1.29-4.44v-4.21c0-1.97-0.35-3.4-1.05-4.29c-0.7-0.88-1.81-1.33-3.31-1.33h-3.9v15.59H184.31z"/>
			<path fill="#FFFFFF" d="M204.03,345.89h23.39v7.8h-14.82v14.43h11.77v7.8h-11.77v16.76h14.82v7.8h-23.39V345.89z"/>
			<path fill="#FFFFFF" d="M232.34,345.89h10.76l8.34,32.67h0.16v-32.67h7.64v54.58h-8.81l-10.29-39.85h-0.16v39.85h-7.64V345.89z"
				/>
			<path fill="#FFFFFF" d="M272.34,353.69h-8.97v-7.8h26.51v7.8h-8.97v46.79h-8.58V353.69z"/>
			<path fill="#FFFFFF" d="M297.06,345.89h11.62l8.89,54.58h-8.58l-1.56-10.84v0.16h-9.75l-1.56,10.68h-7.95L297.06,345.89z
				 M306.41,382.39l-3.82-26.98h-0.16l-3.74,26.98H306.41z"/>
			<path fill="#FFFFFF" d="M321.7,345.89h8.58v46.79h14.11v7.8H321.7V345.89z"/>
		</g>
	</g>
	<g>
		<path d="M121.26,319.22c0,1.33-0.32,2.49-0.97,3.47c-0.65,0.98-1.58,1.74-2.82,2.27s-2.73,0.8-4.49,0.8
			c-0.78,0-1.54-0.05-2.28-0.15s-1.45-0.25-2.13-0.45c-0.68-0.2-1.33-0.45-1.94-0.74v-4.42c1.06,0.47,2.17,0.9,3.32,1.27
			c1.15,0.38,2.28,0.57,3.41,0.57c0.78,0,1.4-0.1,1.88-0.31c0.48-0.2,0.82-0.49,1.04-0.84s0.32-0.77,0.32-1.23
			c0-0.56-0.19-1.04-0.57-1.44c-0.38-0.4-0.9-0.77-1.56-1.12s-1.4-0.72-2.23-1.12c-0.52-0.25-1.09-0.54-1.7-0.9
			c-0.61-0.35-1.2-0.79-1.75-1.3s-1.01-1.13-1.36-1.87s-0.53-1.61-0.53-2.63c0-1.34,0.31-2.49,0.92-3.44
			c0.61-0.95,1.49-1.68,2.63-2.19c1.14-0.51,2.49-0.76,4.05-0.76c1.17,0,2.28,0.14,3.34,0.41c1.06,0.27,2.17,0.66,3.32,1.17
			l-1.54,3.7c-1.03-0.42-1.96-0.74-2.78-0.97s-1.65-0.35-2.5-0.35c-0.59,0-1.1,0.09-1.52,0.28c-0.42,0.19-0.74,0.46-0.95,0.8
			c-0.21,0.34-0.32,0.74-0.32,1.19c0,0.53,0.16,0.98,0.47,1.34c0.31,0.36,0.78,0.71,1.41,1.05c0.63,0.34,1.42,0.73,2.36,1.18
			c1.15,0.54,2.13,1.11,2.94,1.7c0.81,0.59,1.44,1.28,1.88,2.07S121.26,318.05,121.26,319.22z"/>
		<path d="M138.26,325.46h-12.93v-22.45h12.93v3.9h-8.17v4.93h7.6v3.9h-7.6v5.79h8.17V325.46z"/>
		<path d="M142.94,325.46v-22.45h4.76v18.51h9.1v3.93H142.94z"/>
		<path d="M165.38,325.46h-4.68v-22.45h12.87v3.9h-8.18v5.79H173v3.88h-7.61V325.46z"/>
		<path d="M176.07,318.95v-3.84h8.24v3.84H176.07z"/>
		<path d="M206.7,314.02c0,2.53-0.48,4.64-1.45,6.33c-0.97,1.69-2.37,2.97-4.2,3.82c-1.83,0.86-4.04,1.28-6.62,1.28h-6.36v-22.45
			h7.05c2.35,0,4.4,0.42,6.13,1.25c1.73,0.83,3.07,2.07,4.02,3.7C206.22,309.6,206.7,311.61,206.7,314.02z M201.75,314.14
			c0-1.66-0.24-3.02-0.73-4.09s-1.2-1.86-2.15-2.37c-0.95-0.51-2.12-0.77-3.51-0.77h-2.53v14.62h2.04c2.32,0,4.05-0.62,5.18-1.86
			S201.75,316.59,201.75,314.14z"/>
		<path d="M217.89,303.01c2.04,0,3.72,0.25,5.04,0.74s2.31,1.23,2.96,2.23c0.65,0.99,0.97,2.25,0.97,3.76c0,1.02-0.2,1.92-0.58,2.69
			s-0.9,1.42-1.54,1.95s-1.32,0.97-2.06,1.3l6.6,9.78H224l-5.36-8.61h-2.53v8.61h-4.76v-22.45H217.89z M217.55,306.91h-1.44v6.06
			h1.54c1.58,0,2.7-0.26,3.39-0.79c0.68-0.53,1.02-1.3,1.02-2.33c0-1.06-0.37-1.82-1.1-2.27S219.09,306.91,217.55,306.91z"/>
		<path d="M232.1,325.46v-22.45h4.76v22.45H232.1z"/>
		<path d="M260.12,303.01l-7.63,22.45h-5.19l-7.62-22.45h4.81l4.22,13.36c0.07,0.23,0.19,0.65,0.35,1.27
			c0.16,0.62,0.33,1.27,0.5,1.97c0.17,0.69,0.28,1.26,0.35,1.71c0.06-0.45,0.17-1.02,0.33-1.7c0.16-0.69,0.32-1.34,0.48-1.96
			c0.16-0.62,0.27-1.05,0.35-1.28l4.25-13.36H260.12z"/>
		<path d="M275.88,325.46h-12.93v-22.45h12.93v3.9h-8.17v4.93h7.6v3.9h-7.6v5.79h8.17V325.46z"/>
	</g>
</g>
<g>
</g>
<g>
</g>
<g>
</g>
<g>
</g>
<g>
</g>
<g>
</g>
</svg>
