<?xml version="1.0" encoding="utf-8"?>
<!-- Generator: Adobe Illustrator 24.3.0, SVG Export Plug-In . SVG Version: 6.00 Build 0)  -->
<svg version="1.1" id="Layer_9" xmlns="http://www.w3.org/2000/svg" xmlns:xlink="http://www.w3.org/1999/xlink" x="0px" y="0px"
	 viewBox="0 0 406.83 304.08" enable-background="new 0 0 406.83 304.08" xml:space="preserve">
<g>
	<g>
		<g>
			<path d="M146.23,20.66c0.92-0.46-58.24,18.8-69.25,88.97C76.98,109.63,105.42,48.18,146.23,20.66z"/>
			<path d="M328.3,113.29l-26.14,33.02l-47.24,2.75c0,0-22.6,14.41-34.39,34.4c-17.49,29.65-13.58,70.27,46.78,56.41
				c15.84-3.64,32.56-11.01,56.85-24.76c-0.82,1.43-60.79,104.42-159.44,77.58c9.11,8.23,13.62,11.38,13.62,11.38
				c0,0.46-116.47-16.97-83.48-155.89c-0.45,0.95-14.75,17.63-21.53,33.87c0.27-1,1-28.3,16.1-61.97
				c11.06-24.67,29.83-52.76,61.77-76.43c-10.81,2.31-18.62,5.74-19.1,5.95c0.12-0.15,0.36-0.33,0.69-0.55
				c12.13-9.61,54.44-41.28,105.63-49.03c0.45-0.46,16.96,5.96,16.96,5.96l16.51-1.83l5.51,6.42h10.54c0,0,18.81,28.43,49.99,44.02
				c0,0-2.67,19.54-9.46,33.68c-2.1,4.36-4.59,8.21-7.51,10.81C319.59,99.53,328.3,113.29,328.3,113.29z"/>
		</g>
		<g>
			<path fill="#FF4D30" d="M233.43,48.43c0,0,4.82-7.11,4.59-7.34c0.46,13.3-1.15,17.2-1.15,17.2l9.4,2.75l-13.53,2.75l-0.92,8.71
				l6.42,5.04L222.2,88.1l21.32-8.94c0,0,4.59,2.52,5.27,1.15c8.48-9.4,12.84-22.24,12.84-22.24l-12.61-31.87l-9.4-2.98
				c0,0-9.86,4.59-9.4,4.59C228.62,39.03,233.43,48.43,233.43,48.43z"/>
			<path fill="#FF4D30" d="M267.6,64.71C266,70.67,250.17,88.1,250.17,88.1l-10.55-3.44l4.36,3.44l-8.71,7.34L246.28,91
				c0,0,6.65,3.06,7.34,3.06c7.11-4.82,19.72-19.26,24.76-24.54c5.04-5.27,1.38-9.63,1.38-9.63l-16.74-35.54l-5.73,0.92l-0.46,2.29
				c0,0,7.11,19.03,9.86,24.54C269.43,57.6,269.21,58.75,267.6,64.71z"/>
			<path fill="#FF4D30" d="M299.7,64.02l-21.1-35.08h-6.88c0,0,13.53,31.87,17.66,36.46c-3.44,10.55-24.99,27.75-24.99,27.75
				l7.11,5.96C290.53,83.97,299.7,64.02,299.7,64.02z"/>
			<path fill="#FF4D30" d="M307.5,63.11c-1.6,6.65-12.61,19.95-12.61,19.95l4.82,15.13c10.09-11.01,16.05-33.02,16.05-33.02
				l-20.87-16.74C294.89,48.43,302.22,59.67,307.5,63.11z"/>
			<path fill="#FF4D30" d="M290.53,107.93c0,0,0,0,2.93,6.08c-3.03-1.83-4.99-6.08-4.99-6.08s11.24-14.1,0-14.1
				c-16.28,5.27-13.07,24.08-10.55,28.2c-4.59-0.92-8.94-16.05-8.94-16.05c-3.9,16.05,2.52,23.39,2.52,23.39h21.1l10.55-15.36
				c0,0-3.21-6.19-8.25-13.07C294.2,106.67,290.53,107.93,290.53,107.93z"/>
			<path fill="#D63221" d="M224.95,119.51c0,0-45.86-18.8-29.81-63.86c2.29,21.21,2.75,14.79,2.75,14.79s2.86-19.95,13.07-29.81
				c0,0-28.66,7.8-34.4,11.69c0,0,20.87-16.74,47.69-22.24c1.38,8.48-0.54,17.96,5.27,25.57c-4.36,8.37-6.13,25.34-4.82,27.63
				c1.32,2.29-14.45,9.4-14.45,9.4s14.68,0.69,21.78-4.59c0,5.73-1.15,16.74-4.13,22.01c0,0,12.15-7.8,13.99-13.76
				c4.82,2.75,12.84,7.34,12.84,7.34l5.27-4.59l4.36,3.9c0,0-6.65,14.22-1.15,26.37c-2.58-0.14-4.93-0.23-7.04-0.27
				c-8.71-0.18-17.23-2.56-24.72-7l0,0c-0.08-0.05-0.16-0.09-0.25-0.12L224.95,119.51z"/>
		</g>
		<g>
			<path d="M403.16,189.34c-0.05-4.94-2-11.54-7.45-17.67c-14.25-16.02-47.12-23.38-97.68-21.87c-0.24,0.01-0.48,0.01-0.73,0.02
				c-35.03-20.54-92.23-30.73-119.58-29.91c-33.25,0.99-73.19,5.04-117.47,27.55c-10.82,5.29-19.19,5.92-21.49,5.99
				c-0.24,0.01-0.42,0.01-0.53,0.01c-0.51-0.02-1.52-0.06-2.85-0.02c-17.86,0.53-24.42,11.1-24.62,20.01
				c-0.13,6.39-2.27,13.84-5.85,20.42c-4.79,8.79-7.82,23.39-0.58,35.61c6.91,11.66,20.77,17.67,41.18,17.89
				c7.81,12.97,22.08,21.48,38.12,21c12.88-0.38,24.27-6.48,31.9-15.81l5.57,0.41l169.18-5.04l2.94-0.2
				c8.15,8.6,19.72,13.81,32.38,13.44c13.82-0.41,25.94-7.41,33.52-17.92l2.47-0.17c1.19,0.04,3.6,0.09,6.68,0
				c16.36-0.49,27.29-3.99,33.4-10.69c3.7-4.07,5.48-9.1,5.13-14.55C406.01,205.5,403.91,193.41,403.16,189.34z"/>
			<path fill="#D63221" d="M392.16,224.91c-7.93,7.28-30.77,6.13-30.77,6.13l-2.78,0.19l-9.96,0.68
				c-4.75,8.05-13.3,13.54-23.22,13.84c-9.16,0.27-17.42-3.96-22.75-10.71l-10.23,0.69l-2.77,0.19l-168.32,5.02l-5.38-0.4
				l-9.82-0.74c-4.79,7.84-13.23,13.17-22.99,13.46c-11.8,0.35-22.11-6.77-26.56-17.14l-10.13-0.76
				c-28.73-0.05-34.79-12.5-34.43-23.05c0.18-5.35,2.01-10.21,3.38-12.72c4.07-7.46,7.12-16.73,7.32-25.91
				c0.2-9.19,14.98-8.25,14.98-8.25s11.91,0.57,27.87-7.25c44.07-22.42,83.95-25.44,112.47-26.29
				c28.54-0.85,85.51,10.76,116.06,30.04c101.73-3.95,96.98,28.3,96.98,28.3s2.8,14.15,3.7,28.34
				C394.98,221.19,393.95,223.26,392.16,224.91z"/>
			<path fill="#FF4D30" d="M392.16,224.91c-46.5-20.23-174.67-60.82-380.11-12.6c0.18-5.35,2.01-10.21,3.38-12.72
				c4.07-7.46,7.12-16.73,7.32-25.91c0.2-9.19,14.98-8.25,14.98-8.25s11.91,0.57,27.87-7.25c44.07-22.42,83.95-25.44,112.47-26.29
				c28.54-0.85,85.51,10.76,116.06,30.04c101.73-3.95,96.98,28.3,96.98,28.3s2.8,14.15,3.7,28.34
				C394.98,221.19,393.95,223.26,392.16,224.91z"/>
		</g>
		<g>
			<path fill="#D63221" d="M177.95,274.06l7.8-0.39l0.47,9.45l-7.8,0.39L177.95,274.06z"/>
			<path fill="#D63221" d="M189.22,248.95l7.3-0.36l0.32,6.41l-7.3,0.36L189.22,248.95z M189.68,258.3l7.3-0.36l1.22,24.59
				l-7.3,0.36L189.68,258.3z"/>
			<path fill="#D63221" d="M201.64,257.71l6.8-0.34l0.2,4.01c0.93-1.69,1.91-2.91,2.91-3.66c1-0.75,2.25-1.17,3.75-1.24
				c2.02-0.1,3.64,0.6,4.86,2.09s1.91,3.86,2.07,7.1L223,281.3l-7.33,0.36l-0.67-13.52c-0.08-1.54-0.35-2.62-0.83-3.24
				c-0.47-0.62-1.11-0.91-1.91-0.87c-0.88,0.04-1.58,0.51-2.09,1.4c-0.51,0.89-0.7,2.46-0.59,4.69l0.58,11.81l-7.3,0.36
				L201.64,257.71z"/>
		</g>
		<g>
			<path d="M263.63,160.9c-15.52-0.64-14.66,1.57-14.66,1.57s0.1,1.76,0.82,3.45c0.72,1.7,4.67,1.96,4.67,1.96l-62.73-0.47
				c0,0-10.61-28.02-10.62-28.36C217.83,135.17,263.63,160.9,263.63,160.9z"/>
			<path d="M97.91,158.63c28.21-21.66,70.68-19.39,70.68-19.39l5.95,28.07l-80.36,2.48C94.18,169.8,91.33,163.65,97.91,158.63z"/>
		</g>
		<g>
			<g>
				<path d="M49.1,179.51l21.64-0.37c3.61-0.06,6.4,1.05,8.37,3.32c1.97,2.28,2.98,5.12,3.04,8.52c0.05,2.86-0.6,5.32-1.94,7.38
					c-0.9,1.38-2.22,2.48-3.98,3.3c2.7,0.79,4.7,2.19,6.01,4.2c1.3,2.01,1.98,4.55,2.03,7.63c0.04,2.5-0.37,4.76-1.24,6.78
					s-2.08,3.62-3.62,4.81c-0.96,0.74-2.41,1.29-4.36,1.66c-2.6,0.48-4.32,0.73-5.17,0.75l-19.96,0.34L49.1,179.51z M61.08,198.26
					l5.03-0.08c1.8-0.03,3.05-0.45,3.75-1.27c0.69-0.81,1.03-1.98,1-3.49c-0.02-1.41-0.4-2.5-1.12-3.28
					c-0.72-0.78-1.96-1.15-3.71-1.12l-5.1,0.09L61.08,198.26z M61.4,217.24l5.9-0.1c1.99-0.03,3.39-0.51,4.19-1.44
					c0.8-0.93,1.19-2.16,1.16-3.7c-0.02-1.43-0.45-2.57-1.27-3.42c-0.82-0.85-2.25-1.26-4.27-1.23l-5.87,0.1L61.4,217.24z"/>
				<path d="M88.68,203.04c-0.13-7.89,1.46-14.06,4.79-18.51c3.33-4.45,8.03-6.73,14.11-6.83c6.23-0.11,11.06,1.97,14.5,6.23
					c3.44,4.26,5.23,10.28,5.36,18.06c0.1,5.65-0.56,10.29-1.97,13.93c-1.41,3.64-3.49,6.49-6.24,8.54s-6.2,3.12-10.35,3.19
					c-4.22,0.07-7.73-0.74-10.52-2.43c-2.79-1.69-5.08-4.4-6.86-8.12C89.72,213.37,88.78,208.68,88.68,203.04z M100.25,202.91
					c0.08,4.88,0.84,8.37,2.28,10.48c1.44,2.11,3.37,3.14,5.78,3.1c2.48-0.04,4.39-1.12,5.72-3.23s1.94-5.87,1.85-11.27
					c-0.08-4.55-0.84-7.86-2.3-9.93c-1.46-2.07-3.4-3.09-5.83-3.05c-2.33,0.04-4.18,1.14-5.56,3.29
					C100.81,194.45,100.16,197.99,100.25,202.91z"/>
				<path d="M132.23,202.3c-0.13-7.89,1.46-14.06,4.79-18.51c3.33-4.45,8.03-6.73,14.11-6.83c6.23-0.11,11.06,1.97,14.5,6.23
					c3.44,4.26,5.23,10.28,5.36,18.06c0.1,5.65-0.56,10.29-1.97,13.93c-1.41,3.64-3.49,6.49-6.24,8.54
					c-2.75,2.06-6.2,3.12-10.35,3.19c-4.22,0.07-7.73-0.74-10.52-2.43c-2.79-1.69-5.08-4.4-6.86-8.12
					C133.26,212.63,132.32,207.95,132.23,202.3z M143.79,202.17c0.08,4.88,0.84,8.37,2.28,10.48c1.44,2.11,3.37,3.14,5.78,3.1
					c2.48-0.04,4.39-1.12,5.72-3.23c1.33-2.11,1.94-5.87,1.85-11.27c-0.08-4.55-0.84-7.86-2.3-9.93c-1.46-2.07-3.4-3.09-5.83-3.05
					c-2.33,0.04-4.18,1.14-5.56,3.29S143.71,197.25,143.79,202.17z"/>
				<path d="M176.69,177.35l15.21-0.26l6.36,29.3l5.33-29.49l15.2-0.26l0.82,48.31l-9.47,0.16l-0.62-36.84l-6.67,36.97l-8.57,0.14
					l-7.9-36.72l0.62,36.84l-9.47,0.16L176.69,177.35z"/>
				<path d="M251.55,204.64l10.2,3.78c-0.62,3.68-1.64,6.76-3.06,9.25c-1.42,2.49-3.21,4.37-5.36,5.66
					c-2.15,1.29-4.9,1.96-8.25,2.02c-4.07,0.07-7.4-0.64-10.01-2.12c-2.6-1.48-4.87-4.13-6.81-7.94c-1.94-3.81-2.96-8.71-3.06-14.71
					c-0.14-7.99,1.41-14.16,4.63-18.51c3.22-4.35,7.84-6.57,13.87-6.67c4.71-0.08,8.44,1.09,11.18,3.5c2.74,2.41,4.8,6.16,6.2,11.23
					l-10.16,3.1c-0.38-1.46-0.78-2.54-1.18-3.21c-0.67-1.13-1.47-2-2.42-2.6c-0.95-0.6-2-0.89-3.16-0.87
					c-2.62,0.04-4.61,1.44-5.95,4.18c-1.02,2.04-1.5,5.22-1.42,9.54c0.09,5.35,0.78,9.01,2.07,10.98c1.29,1.96,3.08,2.93,5.36,2.89
					c2.21-0.04,3.87-0.87,4.97-2.49C250.3,210.04,251.09,207.7,251.55,204.64z"/>
				<path d="M290.5,215.78L277.37,216l-1.69,8.01l-11.81,0.2l13.25-48.55l12.61-0.21l14.88,48.07l-12.11,0.2L290.5,215.78z
					 M287.92,205.37l-4.42-17.3l-3.79,17.44L287.92,205.37z"/>
				<path d="M308.44,223.46l-0.82-48.31l19.27-0.33c3.57-0.06,6.31,0.29,8.21,1.05c1.9,0.76,3.45,2.2,4.64,4.32s1.82,4.72,1.87,7.8
					c0.04,2.68-0.36,5-1.21,6.96c-0.85,1.96-2.04,3.56-3.57,4.79c-0.97,0.79-2.32,1.45-4.03,1.98c1.39,0.57,2.4,1.15,3.04,1.73
					c0.43,0.39,1.06,1.23,1.89,2.51c0.83,1.28,1.39,2.28,1.67,2.97l5.83,13.91l-13.06,0.22l-6.43-14.66
					c-0.82-1.9-1.53-3.13-2.16-3.69c-0.85-0.73-1.8-1.09-2.85-1.07l-1.02,0.02l0.33,19.61L308.44,223.46z M319.57,194.52l4.88-0.08
					c0.53-0.01,1.54-0.25,3.05-0.71c0.76-0.21,1.38-0.73,1.85-1.55c0.47-0.82,0.7-1.76,0.68-2.81c-0.03-1.56-0.43-2.75-1.21-3.57
					c-0.78-0.82-2.22-1.21-4.33-1.18l-5.08,0.09L319.57,194.52z"/>
			</g>
			<rect x="182.15" y="185.36" transform="matrix(0.9988 -0.0494 0.0494 0.9988 -9.2638 9.4627)" width="9.29" height="13.55"/>
			<rect x="205.3" y="184.22" transform="matrix(0.9988 -0.0494 0.0494 0.9988 -9.179 10.6049)" width="9.29" height="13.55"/>
			<rect x="196.1" y="201.73" transform="matrix(0.9988 -0.0494 0.0494 0.9988 -9.9161 10.0556)" width="4.74" height="7.8"/>
		</g>
	</g>
	<path fill="#99250A" d="M134.05,123.07c3.39-9.29,8.7-20.97,17.2-33.18c12.59-18.1,26.89-29.8,37.01-36.77
		c-1.92,5.39-5.65,18.17-2.17,33.84c4.36,19.66,17.2,30.98,21.36,34.36c-10.92-1.64-24.19-2.76-39.24-2.23
		C155.25,119.55,143.75,121.14,134.05,123.07z"/>
</g>
<g>
</g>
<g>
</g>
<g>
</g>
<g>
</g>
<g>
</g>
<g>
</g>
</svg>
